<?xml version="1.0" standalone="no"?>
<!DOCTYPE svg PUBLIC "-//W3C//DTD SVG 20010904//EN"
 "http://www.w3.org/TR/2001/REC-SVG-20010904/DTD/svg10.dtd">
<svg version="1.0" xmlns="http://www.w3.org/2000/svg"
 width="512.000000pt" height="512.000000pt" viewBox="0 0 512.000000 512.000000"
 preserveAspectRatio="xMidYMid meet">

<g transform="translate(0.000000,512.000000) scale(0.100000,-0.100000)"
fill="#000000" stroke="none">
<path d="M230 2945 l0 -205 210 0 c116 0 210 4 210 8 0 5 -11 19 -25 32 l-25
24 25 26 c24 25 25 30 25 173 l0 147 -210 0 -210 0 0 -205z m170 48 l1 -38 30
38 c21 25 39 37 56 37 25 0 25 0 -11 -40 -20 -22 -36 -44 -36 -49 0 -4 18 -29
41 -55 38 -43 39 -46 18 -46 -13 0 -40 16 -61 37 l-38 37 0 -37 c0 -30 -4 -37
-20 -37 -19 0 -20 7 -20 95 0 88 1 95 20 95 16 0 20 -7 20 -37z"/>
<path d="M2250 2685 l0 -265 55 0 55 0 0 265 0 265 -55 0 -55 0 0 -265z"/>
<path d="M1300 2670 l0 -251 58 3 57 3 3 65 c3 57 7 69 34 97 l31 32 81 -99
81 -100 63 0 c34 0 62 3 62 8 0 4 -48 67 -106 140 l-106 132 102 110 102 110
-63 0 -64 1 -107 -113 -107 -113 -1 113 0 112 -60 0 -60 0 0 -250z"/>
<path d="M2987 2678 c-59 -134 -107 -247 -107 -251 0 -4 26 -7 57 -5 l57 3 21
53 20 52 116 0 117 0 23 -55 23 -55 58 0 c32 0 58 3 58 8 0 4 -49 115 -108
247 l-108 240 -60 3 -60 3 -107 -243z m207 32 c20 -46 36 -86 36 -87 0 -2 -34
-3 -75 -3 -41 0 -75 4 -75 9 0 5 9 28 19 52 11 24 26 62 35 83 9 22 18 37 20
35 3 -2 21 -42 40 -89z"/>
<path d="M1770 2802 c0 -5 36 -92 80 -193 67 -152 79 -188 71 -206 -13 -28
-54 -39 -87 -24 -31 14 -38 10 -54 -29 -18 -43 3 -62 74 -68 67 -5 124 23 154
77 21 38 192 435 192 446 0 3 -23 5 -52 3 l-52 -3 -43 -100 c-23 -55 -47 -113
-53 -130 -11 -29 -13 -27 -65 100 l-53 130 -56 3 c-31 2 -56 -1 -56 -6z"/>
<path d="M2561 2799 c-79 -32 -121 -96 -121 -187 0 -113 71 -182 197 -190 50
-3 71 0 108 18 149 72 149 284 0 351 -43 20 -143 24 -184 8z m148 -105 c27
-22 31 -32 31 -76 0 -41 -5 -54 -29 -79 -65 -64 -161 -19 -161 76 0 92 90 137
159 79z"/>
<path d="M3480 2550 l0 -260 55 0 55 0 0 85 0 85 33 -20 c36 -22 108 -27 154
-9 71 26 116 97 117 184 2 123 -82 202 -204 193 -37 -3 -66 -11 -78 -21 -24
-22 -32 -21 -32 3 0 17 -7 20 -50 20 l-50 0 0 -260z m271 141 c64 -64 21 -181
-66 -181 -27 0 -44 8 -66 29 -64 64 -21 181 66 181 27 0 44 -8 66 -29z"/>
<path d="M3970 2550 l0 -260 55 0 55 0 0 84 0 84 38 -20 c52 -27 136 -21 190
14 54 36 77 87 77 169 0 55 -5 72 -28 107 -15 23 -45 51 -67 62 -52 27 -134
27 -177 0 -33 -20 -33 -20 -33 0 0 18 -7 20 -55 20 l-55 0 0 -260z m265 154
c60 -39 53 -148 -12 -182 -78 -42 -157 27 -139 123 12 65 93 97 151 59z"/>
<path d="M4514 2796 c-47 -21 -74 -62 -74 -111 0 -56 37 -89 117 -105 107 -21
122 -30 104 -58 -14 -23 -82 -25 -143 -5 l-56 19 -16 -33 c-9 -19 -16 -38 -16
-43 0 -16 100 -40 164 -40 69 0 135 25 160 61 9 13 16 42 16 65 0 58 -36 87
-127 104 -79 15 -103 25 -103 45 0 35 78 46 148 21 l40 -14 15 39 c15 38 15
40 -6 51 -34 18 -186 21 -223 4z"/>
<path d="M670 2455 l0 -205 210 0 210 0 0 205 0 205 -43 0 c-40 0 -48 -5 -107
-65 l-64 -66 -66 66 c-57 57 -70 65 -103 65 l-37 0 0 -205z m267 45 c9 0 33
-65 33 -90 0 -45 -16 -70 -57 -86 -42 -18 -83 -11 -112 19 -69 75 5 194 104
166 16 -5 31 -9 32 -9z"/>
<path d="M830 2460 c-39 -39 -11 -110 44 -110 34 0 56 25 56 64 0 59 -59 87
-100 46z"/>
</g>
</svg>
