<?xml version="1.0" encoding="utf-8"?>
<!-- Generator: Adobe Illustrator 22.1.0, SVG Export Plug-In . SVG Version: 6.00 Build 0)  -->
<svg version="1.1" id="Ebene_1" xmlns="http://www.w3.org/2000/svg" xmlns:xlink="http://www.w3.org/1999/xlink" x="0px" y="0px"
	 viewBox="0 0 636 114.7" style="enable-background:new 0 0 636 114.7;" xml:space="preserve">
<style type="text/css">
	.st0{fill:#76B856;}
	.st1{fill:#FFFFFF;}
</style>
<g>
	<path class="st0" d="M101.1,348.7V369c1.5-1.7,3.2-4.9,3.2-10.2C104.3,353.7,102.6,350.5,101.1,348.7 M94.7,404.7
		c0.2-2.3,0.3-6.5-1.4-10.3c-1.7-3.8-4.7-6-6.3-7c-0.4,1.9-0.7,5.6,1,9.4C89.7,400.5,92.9,403.3,94.7,404.7 M98.9,369.6v-21.5
		c-1.5,1.6-3.7,5-3.7,10.8C95.1,364.7,97.4,368,98.9,369.6 M111.8,397.5c1.6-3.8,1.3-7.5,0.9-9.4c-1.6,1-4.6,3.3-6.2,7.1
		c-1.6,3.8-1.5,8-1.3,10.3C107.1,404.2,110.2,401.3,111.8,397.5 M163.1,332.7c-9.9-8.1-28.4-9.3-63.6-9.3c-35,0-53.4,1.3-63.3,9.4
		c-9.9,8.2-10.8,23.1-10.8,50c0,27.2,0.9,42.1,10.7,50.3c9.9,8.1,28.3,9.3,63.4,9.4c35.2,0,53.7-1.2,63.6-9.4
		c9.9-8.2,10.8-23.2,10.8-50.3C173.8,355.8,173,340.9,163.1,332.7 M123.3,341.2c1.5-2.2,4.2-2.7,4.2-2.7s4.5-2.5,8.8,0.9
		c4.9,3.8,1.7,10.8,1.7,10.8s-1,6.1-1.3,6.9s-2.2,1.6-2.2,1.6s-1.1,0.3-2.3,0.3s-2.5-0.4-2.9-0.6c-0.5-0.3-0.6-1.3-0.6-1.3
		s-0.2-0.9-0.4-1.2c-0.3-0.3-2.9-0.4-4.7-3.5c-1.2-2.1-0.5-5-0.2-6.8C123.6,343.9,123.3,341.2,123.3,341.2 M59.8,339.2
		c4.9-2.3,10.8-0.1,13,4.8c1.5,3.2,0.9,4.4-1.2,5.5c0.3,0.8,0.5,1.6,0.5,2.5c0,3.6-2.9,6.5-6.5,6.5c-2.7,0-5-1.6-6-3.9
		c-2,0.7-3.5,0.4-4.7-2.2C52.8,347.3,54.8,341.5,59.8,339.2 M163.8,419.9h-39.7l-0.3,0.9c0,0-2.3,7-6.6,5.9c-4-1.1-2.4-6.7-2.4-6.7
		v-0.1h-13.7v7.7h-2.2v-7.7H86.3l0.4,1.9c0,0,0.8,3.5-2.3,4.8c-3.3,1.3-5.1-3.1-5.1-3.1s-0.7-1.5-1.6-3.5H35.2v-2.2h41.5
		c-0.3-0.8-0.6-1.6-0.9-2.4c-1.3-3.8-3-10.4-3.4-10.6c-0.4-0.2-2.9-0.2-5.9-0.6c-3-0.4-5-1.3-5.4-1.2c-0.8,0.2-7.2,8.4-11.3,9.2
		c-4.1,0.8-8.4-4.5-8.4-4.5l-5.1-6.7c0,0-2-2.6-0.5-4.1c1.8-1.8,3.5-0.5,3.5-0.5s6.9,4.5,7.7,4.9c0.6,0.3,0.7,0.1,0.7,0.1
		s1.1-1.1,1.7-1.7c0.4-0.5,0-0.8,0-0.8s-3.4-3.4-4.7-4.7c-1.1-1.2-0.1-2.9-0.1-2.9l10.1-20.1L41.5,374c0,0-2.5,0.6-3.1-1.1
		c-0.6-1.7,2-3.1,2-3.1l17.5-10.3c0,0,0.8-0.5,1.1-0.6c0.4-0.1,1,0.3,1,0.3s2.4,1.9,5.8,1.8c3.3-0.1,5.3-2.1,5.3-2.1
		s0.5-0.5,1.1-0.6c0.6-0.1,2.1,1.5,2.1,1.5L89.8,377c0,0,1.7,1.9,0.4,3.5c-1.1,1.4-3.6-0.1-3.6-0.1s-9.8-5.9-10.1-6
		c-0.4-0.1-0.3,0.4-0.3,0.4l9.6,42.8h13.1v-45c-1-0.6-6.1-4.5-6.1-13.8c0-10,6.1-13.9,6.3-14.1c0.4-0.2,0.9-0.2,1.3,0
		c0.3,0.2,6.3,4,6.3,14.1c0,8.2-4,12.2-5.6,13.4v45.4h14.2l5.8-27.8c0,0,3.3-15.7,3.1-15.8c-0.2-0.1-11.9,7.5-11.9,7.5
		s-1.6,1.5-3.3-0.1c-1.7-1.6,0.8-3.8,0.8-3.8l14.8-17.2c0,0,0.5-0.6,1.2-0.6c0.9,0.1,1,0.7,1,0.7s1.6,4.2,1.9,4.2
		c0.2,0,2.4-2.3,2.4-2.3s1.1-1.1,1.7-1.2s0.9,0.5,0.9,0.5l2.4,3.4c0,0,0.6,0.8,0.7,0.8c0.2,0,0.3-0.4,0.3-0.4l2.9-5.2
		c0,0,0.6-1.2,1.2-1.7c0.6-0.4,1.8,0.4,1.8,0.4l16.8,10.1c0,0,2.3,1.1,1.7,3.3c-0.7,2.6-4.6,1.2-4.6,1.2s-11.7-2.4-11.9-2.3
		c-0.2,0.2,0.1,0.6,0.1,0.6s9.1,20.6,9,21.8c0,1-1.2,1.7-1.2,1.7s-3.1,1.9-3.1,2.2c-0.1,0.3,0.2,0.6,0.2,0.6s1.6,1.7,2,1.8
		c0.4,0.1,1.2-0.4,1.2-0.4l5.3-2.8c0,0,2.5-2,4.4-0.1c1.9,1.9-0.7,4.2-0.7,4.2l-5.2,5.9c0,0-3,4.5-6,4.8c-3.2,0.3-6.1-2.5-6.1-2.5
		s-9.1-8.9-9.3-9.1c-0.2-0.2-0.4,0.1-0.4,0.1s-1,2.6-1.4,3c-0.4,0.4-1.2,0.6-1.2,0.6s-3.8,0.5-4,0.7c-0.2,0.1-0.3,0.9-0.3,0.9
		l-3.7,12.4h39.1L163.8,419.9L163.8,419.9z M95.4,393.5c2.7,6.2,1.4,13.1,1.3,13.4c-0.1,0.4-0.3,0.7-0.6,0.8c-0.3,0.1-0.7,0.1-1-0.1
		c-0.2-0.2-6.3-3.8-9.1-10c-2.8-6.2-0.8-12.1-0.7-12.3c0.1-0.3,0.3-0.5,0.6-0.7c0.3-0.1,0.6-0.1,0.9,0
		C87,384.7,92.6,387.2,95.4,393.5 M113,385.4c0.3-0.1,0.6-0.1,0.9,0c0.3,0.1,0.5,0.4,0.6,0.7c0.1,0.2,2.1,6.1-0.6,12.3
		c-2.7,6.2-8.7,9.9-8.9,10.1c-0.3,0.2-0.7,0.2-1,0.1s-0.6-0.4-0.6-0.8c-0.1-0.3-1.5-7.2,1.2-13.4C107.2,388.1,112.8,385.5,113,385.4
		"/>
	<g>
		<path class="st0" d="M210.8,393.5h8.5v22.2l21.7-22.2h10.5l-19.4,19.4l20.8,29.2h-10.6l-16-23.3l-7,6.9v16.4h-8.5V393.5z"/>
		<path class="st0" d="M257.6,393.5h8.5v48.7h-8.5V393.5z"/>
		<path class="st0" d="M276,393.5h9l22.2,35.9h0.1v-35.9h8.1v48.7h-9l-22.2-35.8H284v35.8h-8V393.5z"/>
		<path class="st0" d="M325.4,393.5h20.2c15,0,21.5,10.9,21.5,24.3c0,13.4-6.5,24.3-21.5,24.3h-20.2V393.5z M333.9,435.3h8.4
			c13.4,0,16.2-7.6,16.2-17.4c0-9.8-2.9-17.4-16.2-17.4h-8.4V435.3z"/>
		<path class="st0" d="M374.6,393.5h35v7.4h-26.5v12.8h24.5v7h-24.5V435h27v7.4h-35.5V393.5z"/>
		<path class="st0" d="M417.4,393.5h23.3c10.6,0,16.1,4.9,16.1,13.2c0,9.3-6.5,11.7-8,12.3v0.1c2.9,0.4,7.2,2.6,7.2,10.3
			c0,5.7,0.8,10.8,2.7,12.8h-9.1c-1.3-2.1-1.3-4.8-1.3-7.2c0-8.9-1.8-12.9-9.7-12.9h-12.5v20h-8.5v-48.6H417.4z M425.9,415.7h14
			c5.4,0,8.3-2.7,8.3-7.8c0-6.2-4-7.4-8.5-7.4h-13.8V415.7z"/>
		<path class="st0" d="M465.5,393.5h20.2c15,0,21.5,10.9,21.5,24.3c0,13.4-6.5,24.3-21.5,24.3h-20.2V393.5z M474,435.3h8.4
			c13.4,0,16.2-7.6,16.2-17.4c0-9.8-2.9-17.4-16.2-17.4H474V435.3z"/>
		<path class="st0" d="M558.9,417.9c0,13.9-8.7,25.5-23.3,25.5c-14.6,0-23.3-11.6-23.3-25.5c0-13.9,8.7-25.5,23.3-25.5
			C550.1,392.4,558.9,404,558.9,417.9z M520.8,417.9c0,9.3,4.4,18.5,14.8,18.5s14.8-9.2,14.8-18.5c0-9.3-4.4-18.5-14.8-18.5
			C525.1,399.3,520.8,408.5,520.8,417.9z"/>
		<path class="st0" d="M566.5,393.5h23.3c10.6,0,16.1,4.9,16.1,13.2c0,9.3-6.5,11.7-8,12.3v0.1c2.9,0.4,7.2,2.6,7.2,10.3
			c0,5.7,0.8,10.8,2.7,12.8h-9.1c-1.3-2.1-1.3-4.8-1.3-7.2c0-8.9-1.8-12.9-9.7-12.9H575v20h-8.5V393.5z M575,415.7h14
			c5.4,0,8.3-2.7,8.3-7.8c0-6.2-4-7.4-8.5-7.4H575V415.7z"/>
		<path class="st0" d="M614.6,393.5h33.6v7.4h-25.1v12.8h22v7h-22v21.6h-8.5V393.5z"/>
	</g>
	<g>
		<path class="st0" d="M216.4,356c0,7.5,5.5,10.4,12.3,10.4c7.5,0,10.3-3.7,10.3-7.4c0-3.8-2-5.3-4-6c-3.4-1.3-7.8-2.2-14.5-4
			c-8.3-2.3-10.8-7.3-10.8-12.3c0-9.8,9-14.3,17.8-14.3c10.2,0,18.7,5.4,18.7,15.5h-8.5c-0.4-6.3-4.6-8.6-10.5-8.6
			c-4,0-8.9,1.4-8.9,6.3c0,3.4,2.3,5.3,5.8,6.3c0.7,0.2,11.5,3,14,3.7c6.4,1.9,9.5,7.4,9.5,12.4c0,10.9-9.7,15.3-19.4,15.3
			c-11.1,0-20.1-5.3-20.3-17.4h8.5V356z"/>
		<path class="st0" d="M298.7,347.9c0,13.9-8.7,25.5-23.3,25.5c-14.6,0-23.3-11.6-23.3-25.5c0-13.9,8.7-25.5,23.3-25.5
			C289.9,322.4,298.7,334,298.7,347.9z M260.6,347.9c0,9.3,4.4,18.5,14.8,18.5c10.4,0,14.8-9.2,14.8-18.5c0-9.3-4.4-18.5-14.8-18.5
			C264.9,329.3,260.6,338.5,260.6,347.9z"/>
		<path class="st0" d="M311.6,356c0,7.5,5.5,10.4,12.3,10.4c7.5,0,10.3-3.7,10.3-7.4c0-3.8-2-5.3-4-6c-3.4-1.3-7.8-2.2-14.5-4
			c-8.3-2.3-10.8-7.3-10.8-12.3c0-9.8,9-14.3,17.8-14.3c10.2,0,18.7,5.4,18.7,15.5h-8.5c-0.4-6.3-4.6-8.6-10.5-8.6
			c-4,0-8.9,1.4-8.9,6.3c0,3.4,2.3,5.3,5.8,6.3c0.7,0.2,11.5,3,14,3.7c6.4,1.9,9.5,7.4,9.5,12.4c0,10.9-9.7,15.3-19.4,15.3
			c-11.1,0-20.1-5.3-20.3-17.4h8.5V356z"/>
	</g>
</g>
<g>
	<polygon class="st1" points="162.7,66.2 169.8,66.2 179.7,97.2 179.8,97.2 189.8,66.2 196.8,66.2 183.4,105.4 175.8,105.4 	"/>
	<rect x="200.7" y="66.2" class="st1" width="6.9" height="39.2"/>
	<polygon class="st1" points="215.9,66.2 222.7,66.2 222.7,99.5 242.6,99.5 242.6,105.4 215.9,105.4 	"/>
	<polygon class="st1" points="247.4,66.2 254.2,66.2 254.2,99.5 274.1,99.5 274.1,105.4 247.4,105.4 	"/>
	<path class="st1" d="M289.3,66.2h7.3l15.1,39.1h-7.3l-3.7-10.4h-15.6l-3.7,10.4h-7.1L289.3,66.2z M286.9,89.8h12L293,73h-0.1h-0.1
		L286.9,89.8z"/>
	<g>
		<path class="st1" d="M349.6,105.4h-4.4l-1-4.6c-3.7,4.2-7,5.5-11.8,5.5c-11.7,0-18.7-9.3-18.7-20.5s7-20.5,18.7-20.5
			c8.6,0,15.7,4.6,16.8,13.4h-6.7c-0.7-5.2-5.2-7.8-10.1-7.8c-8.4,0-11.9,7.4-11.9,14.9s3.5,14.9,11.9,14.9c7,0.1,10.9-4.1,11-10.7
			H333v-5.2h16.6V105.4z"/>
		<polygon class="st1" points="357,66.2 385.2,66.2 385.2,72.2 363.9,72.2 363.9,82.4 383.6,82.4 383.6,88 363.9,88 363.9,99.5 
			385.6,99.5 385.6,105.4 357,105.4 		"/>
		<path class="st1" d="M396,92.3c0,6,4.4,8.4,9.9,8.4c6,0,8.3-3,8.3-5.9c0-3-1.6-4.2-3.2-4.8c-2.7-1-6.3-1.8-11.7-3.2
			c-6.7-1.8-8.7-5.9-8.7-9.9c0-7.8,7.2-11.5,14.3-11.5c8.2,0,15,4.3,15,12.5h-6.9c-0.3-5-3.7-6.9-8.4-6.9c-3.2,0-7.2,1.2-7.2,5.1
			c0,2.7,1.9,4.3,4.7,5c0.6,0.2,9.3,2.4,11.3,3c5.2,1.5,7.6,5.9,7.6,10c0,8.8-7.8,12.3-15.6,12.3c-8.9,0-16.2-4.3-16.3-14h6.9V92.3z
			"/>
		<path class="st1" d="M78.9,30.2v16.3c1.2-1.4,2.6-3.9,2.6-8.2C81.5,34.2,80.1,31.6,78.9,30.2 M73.8,75.2c0.2-1.9,0.2-5.2-1.1-8.3
			c-1.4-3.1-3.7-4.9-5.1-5.7c-0.3,1.5-0.6,4.5,0.8,7.6C69.8,71.9,72.3,74.1,73.8,75.2 M77.1,47V29.7c-1.2,1.3-3,4-3,8.7
			C74.1,43.1,75.9,45.7,77.1,47 M87.5,69.4c1.3-3.1,1-6,0.7-7.6c-1.3,0.8-3.7,2.6-5,5.7s-1.2,6.5-1,8.3
			C83.7,74.8,86.2,72.5,87.5,69.4 M128.8,17.3c-8-6.5-22.9-7.5-51.1-7.5c-28.1,0-43,1-50.9,7.6S18.1,36,18.1,57.6
			c0,21.8,0.7,33.9,8.6,40.5c7.9,6.5,22.8,7.5,51,7.5c28.3,0,43.2-1,51.1-7.5c7.9-6.6,8.6-18.6,8.6-40.5
			C137.4,35.9,136.7,23.9,128.8,17.3 M96.7,24.2c1.2-1.8,3.4-2.1,3.4-2.1s3.6-2,7.1,0.7c3.9,3,1.4,8.7,1.4,8.7s-0.8,4.9-1,5.6
			s-1.8,1.3-1.8,1.3s-0.9,0.2-1.8,0.3c-1,0-2-0.3-2.4-0.5s-0.5-1-0.5-1s-0.1-0.8-0.3-1c-0.2-0.2-2.4-0.3-3.8-2.8
			c-1-1.7-0.4-4-0.2-5.4C97,26.3,96.7,24.2,96.7,24.2 M45.7,22.5c4-1.8,8.7-0.1,10.5,3.8c1.2,2.6,0.7,3.6-1,4.4
			c0.3,0.6,0.4,1.3,0.4,2c0,2.9-2.3,5.2-5.2,5.2c-2.1,0-4-1.3-4.8-3.2c-1.6,0.5-2.8,0.3-3.8-1.8C40,29,41.7,24.4,45.7,22.5
			 M129.4,87.5H97.5l-0.2,0.7c0,0-1.8,5.6-5.3,4.7c-3.2-0.8-1.9-5.4-1.9-5.4v-0.1H78.9v6.2h-1.8v-6.1H67l0.3,1.5
			c0,0,0.6,2.8-1.9,3.9c-2.6,1.1-4.1-2.5-4.1-2.5s-0.6-1.2-1.3-2.8H25.9v-1.8h33.4c-0.2-0.6-0.5-1.3-0.7-1.9c-1.1-3-2.5-8.3-2.7-8.5
			c-0.3-0.2-2.4-0.2-4.8-0.5s-4-1.1-4.3-1c-0.7,0.2-5.8,6.7-9.1,7.4c-3.3,0.7-6.8-3.6-6.8-3.6l-4.1-5.4c0,0-1.6-2.1-0.4-3.3
			c1.4-1.5,2.9-0.4,2.9-0.4s5.6,3.6,6.2,4c0.5,0.3,0.6,0,0.6,0s0.9-0.9,1.3-1.4c0.3-0.4,0-0.6,0-0.6s-2.7-2.7-3.8-3.8
			c-0.9-0.9-0.1-2.3-0.1-2.3l8.1-16.2L31,50.5c0,0-2,0.5-2.5-0.9s1.6-2.5,1.6-2.5l14.1-8.2c0,0,0.6-0.4,0.9-0.5
			c0.3,0,0.8,0.2,0.8,0.2s1.9,1.5,4.6,1.4s4.2-1.7,4.2-1.7s0.4-0.4,0.9-0.5s1.7,1.2,1.7,1.2l12.5,13.8c0,0,1.3,1.5,0.3,2.8
			c-0.9,1.1-2.9-0.1-2.9-0.1s-7.9-4.7-8.2-4.8c-0.3-0.1-0.2,0.3-0.2,0.3l7.7,34.4H77V49.5c-0.8-0.5-4.9-3.6-4.9-11.1
			c0-8.1,4.9-11.2,5.1-11.3c0.3-0.2,0.7-0.2,1,0c0.2,0.1,5.1,3.3,5.1,11.3c0,6.6-3.2,9.8-4.5,10.8v36.5h11.5L95,63.3
			c0,0,2.7-12.6,2.5-12.7s-9.5,6-9.5,6s-1.3,1.2-2.7-0.1c-1.4-1.3,0.6-3.1,0.6-3.1l11.9-13.8c0,0,0.4-0.5,0.9-0.5
			c0.7,0.1,0.8,0.5,0.8,0.5s1.3,3.4,1.5,3.4s2-1.9,2-1.9s0.9-0.9,1.4-1s0.8,0.4,0.8,0.4l1.9,2.8c0,0,0.5,0.7,0.6,0.6
			c0.1,0,0.3-0.3,0.3-0.3l2.2-4.2c0,0,0.5-1,0.9-1.3c0.5-0.3,1.4,0.3,1.4,0.3l13.5,8.1c0,0,1.9,0.9,1.3,2.7c-0.6,2.1-3.7,1-3.7,1
			s-9.3-1.9-9.4-1.8s0.1,0.5,0.1,0.5s7.3,16.6,7.2,17.6c0,0.8-1,1.4-1,1.4s-2.5,1.5-2.5,1.8s0.2,0.5,0.2,0.5s1.3,1.4,1.6,1.5
			c0.3,0.1,1-0.3,1-0.3l4.2-2.3c0,0,2-1.6,3.6-0.1s-0.6,3.4-0.6,3.4l-4.2,4.7c0,0-2.4,3.6-4.9,3.9c-2.6,0.3-4.9-2-4.9-2
			s-7.3-7.2-7.5-7.3c-0.2-0.2-0.3,0.1-0.3,0.1s-0.8,2.1-1.1,2.4c-0.3,0.3-1,0.4-1,0.4s-3,0.4-3.2,0.5c-0.1,0.1-0.3,0.7-0.3,0.7
			l-2.9,10h31.4v1.7H129.4z M74.3,66.2c2.2,5,1.1,10.5,1.1,10.8c-0.1,0.3-0.2,0.5-0.5,0.6s-0.6,0.1-0.8,0c-0.2-0.1-5.1-3-7.3-8
			c-2.2-5-0.7-9.7-0.6-9.9c0.1-0.2,0.3-0.4,0.5-0.5s0.5-0.1,0.7,0C67.6,59.2,72.1,61.2,74.3,66.2 M88.5,59.7c0.2-0.1,0.5-0.1,0.7,0
			s0.4,0.3,0.5,0.5s1.7,4.9-0.5,9.9c-2.1,5-7,8-7.2,8.1s-0.6,0.2-0.8,0.1c-0.3-0.1-0.5-0.4-0.5-0.6s-1.2-5.8,0.9-10.8
			C83.8,61.8,88.3,59.8,88.5,59.7"/>
		<path class="st1" d="M171.7,36c0,6,4.4,8.4,9.9,8.4c6,0,8.3-3,8.3-5.9c0-3-1.6-4.2-3.2-4.8c-2.7-1-6.3-1.8-11.7-3.2
			c-6.7-1.8-8.7-5.9-8.7-9.9c0-7.8,7.2-11.5,14.3-11.5c8.2,0,15,4.3,15,12.5h-6.9c-0.3-5-3.7-6.9-8.4-6.9c-3.2,0-7.2,1.2-7.2,5.1
			c0,2.7,1.9,4.3,4.7,5c0.6,0.2,9.3,2.4,11.3,3c5.2,1.5,7.6,5.9,7.6,10c0,8.8-7.8,12.3-15.6,12.3c-8.9,0-16.2-4.3-16.3-14h6.9V36z"
			/>
		<path class="st1" d="M238.1,29.5c0,11.2-7,20.5-18.8,20.5c-11.7,0-18.7-9.3-18.7-20.5S207.6,9,219.3,9
			C231.1,9,238.1,18.3,238.1,29.5 M207.5,29.5c0,7.5,3.5,14.9,11.9,14.9s11.9-7.4,11.9-14.9s-3.5-14.9-11.9-14.9
			S207.5,22,207.5,29.5"/>
		<path class="st1" d="M248.8,36c0,6,4.4,8.4,9.9,8.4c6,0,8.3-3,8.3-5.9c0-3-1.6-4.2-3.2-4.8c-2.7-1-6.3-1.8-11.7-3.2
			c-6.7-1.8-8.7-5.9-8.7-9.9c0-7.8,7.2-11.5,14.3-11.5c8.2,0,15,4.3,15,12.5h-6.9c-0.3-5-3.7-6.9-8.4-6.9c-3.2,0-7.2,1.2-7.2,5.1
			c0,2.7,1.9,4.3,4.7,5c0.6,0.2,9.3,2.4,11.3,3c5.2,1.5,7.6,5.9,7.6,10c0,8.8-7.8,12.3-15.6,12.3c-8.9,0-16.2-4.3-16.3-14h6.9V36z"
			/>
		<path class="st1" d="M321.5,22.4c-1.2-4.5-4.1-7.8-9.8-7.8c-8.4,0-11.9,7.4-11.9,14.9s3.5,14.9,11.9,14.9c6.1,0,9.4-4.5,10-10.2
			h6.7c-0.5,9.4-7.2,15.8-16.7,15.8C300,50,293,40.7,293,29.5S300,9,311.7,9c8.8,0.1,15.8,4.9,16.6,13.4L321.5,22.4L321.5,22.4z"/>
		<polygon class="st1" points="334.5,9.9 341.4,9.9 341.4,25.5 359.2,25.5 359.2,9.9 366.1,9.9 366.1,49.1 359.2,49.1 359.2,31.4 
			341.4,31.4 341.4,49.1 334.5,49.1 		"/>
		<rect x="374.3" y="9.9" class="st1" width="6.9" height="39.1"/>
		<polygon class="st1" points="389.5,9.9 396.4,9.9 396.4,43.2 416.3,43.2 416.3,49.1 389.5,49.1 		"/>
		<path class="st1" d="M421,9.9h16.2c12.1,0,17.3,8.8,17.3,19.6s-5.2,19.6-17.3,19.6H421V9.9z M427.8,43.5h6.7
			c10.7,0,13.1-6.1,13.1-14c0-7.8-2.3-14-13.1-14h-6.7V43.5z"/>
		<path class="st1" d="M460.6,10h18.7c8.5,0,12.9,3.9,12.9,10.6c0,7.5-5.2,9.4-6.5,9.9v0.1c2.3,0.3,5.8,2.1,5.8,8.3
			c0,4.5,0.7,8.7,2.1,10.3h-7.3c-1-1.7-1-3.8-1-5.8c0-7.2-1.5-10.4-7.8-10.4h-10.1v16.1h-6.8V10z M467.4,27.8h11.2
			c4.3,0,6.7-2.1,6.7-6.3c0-5-3.2-6-6.8-6h-11.1L467.4,27.8L467.4,27.8z"/>
		<polygon class="st1" points="499.1,9.9 527.3,9.9 527.3,15.9 506,15.9 506,26.1 525.7,26.1 525.7,31.7 506,31.7 506,43.2 
			527.7,43.2 527.7,49.1 499.1,49.1 		"/>
		<polygon class="st1" points="533.4,9.9 540.6,9.9 558.5,38.8 558.6,38.8 558.6,9.9 565.2,9.9 565.2,49.1 557.9,49.1 540.1,20.3 
			539.9,20.3 539.9,49.1 533.4,49.1 		"/>
		<path class="st1" d="M573.3,22.2c2.6-0.3,3.3-2.5,3.3-4.9h-3.3V9.9h6.9v7.4c0,4.2-2.6,7.5-6.9,8.1V22.2z"/>
		<path class="st1" d="M593,36c0,6,4.4,8.4,9.9,8.4c6,0,8.3-3,8.3-5.9c0-3-1.6-4.2-3.2-4.8c-2.7-1-6.3-1.8-11.7-3.2
			c-6.7-1.8-8.7-5.9-8.7-9.9c0-7.8,7.2-11.5,14.3-11.5c8.2,0,15,4.3,15,12.5H610c-0.3-5-3.7-6.9-8.4-6.9c-3.2,0-7.2,1.2-7.2,5.1
			c0,2.7,1.9,4.3,4.7,5c0.6,0.2,9.3,2.4,11.3,3c5.2,1.5,7.6,5.9,7.6,10c0,8.8-7.8,12.3-15.6,12.3c-8.9,0-16.2-4.3-16.3-14h6.9V36z"
			/>
	</g>
</g>
</svg>
